<svg width="56" height="56" viewBox="0 0 56 56" fill="none" xmlns="http://www.w3.org/2000/svg">
<path d="M34.5099 26.5761C34.3603 26.2775 34.266 26.0874 34.1716 25.899C33.8805 25.3128 34.0431 24.9343 34.6953 24.7618C35.3198 24.5957 35.9411 24.4152 36.7429 24.19C32.864 22.4843 29.0112 22.018 24.8835 22.7127C25.6495 23.3979 26.4578 23.7349 27.3653 23.9361C29.1933 24.3418 29.1836 24.3625 28.8746 26.2088C28.7347 27.0473 28.6729 27.905 28.4696 28.7275C28.3737 29.1172 28.1037 29.5548 27.7751 29.7832C26.7831 30.4731 25.7568 31.1295 24.6851 31.6901C23.7158 32.1964 23.1498 32.9167 22.7806 33.9213C21.9691 36.1269 22.2293 35.7964 20.0369 35.5121C19.2595 35.4114 18.4838 35.215 17.7064 35.2118C17.1957 35.2102 16.646 35.4066 16.1792 35.6414C14.8781 36.2962 13.5071 36.4192 12.0808 36.3649C11.427 36.341 11.1619 36.0455 11.0806 35.4625C10.9879 34.8061 10.8691 34.1529 10.7407 33.3655C10.5374 33.6642 10.404 33.8606 10.2316 34.1146C9.90797 33.9852 9.57294 33.8511 9.17285 33.6897C10.0267 31.6135 11.2221 29.8055 12.6939 28.1685C13.1412 27.6702 13.6096 27.1831 14.1251 26.7566C14.6065 26.3557 14.6943 25.9932 14.4455 25.3991C12.8517 21.5676 11.3262 17.7073 9.71768 13.8806C9.34687 12.999 9.31434 12.1621 9.41518 11.2469C9.62173 9.37033 9.73395 7.48413 9.92748 5.60591C9.95513 5.3376 10.1552 4.97983 10.3812 4.86963C10.5553 4.78498 10.9488 4.95907 11.1473 5.12836C12.8842 6.6105 14.6098 8.10381 16.3061 9.62747C16.5891 9.88141 16.7647 10.2791 16.9143 10.6416C18.2723 13.9413 19.6125 17.2489 20.9607 20.5534C21.0664 20.8137 21.1851 21.0693 21.3982 21.5564C21.7007 19.9497 21.9756 18.5873 22.2065 17.217C22.3041 16.6404 22.5106 16.3035 23.1774 16.2763C23.4002 16.2683 23.7206 15.9824 23.8036 15.754C24.098 14.9571 24.2638 14.1122 24.5663 13.32C24.7436 12.8569 25.0965 12.4608 25.3535 12.0247C25.4446 11.8714 25.5129 11.6957 25.5438 11.5217C25.8658 9.68976 26.2041 7.85945 26.4741 6.02116C26.5277 5.65382 26.4041 5.20024 26.2122 4.87283C25.6544 3.92254 25.9829 2.36534 26.8953 1.79038C27.0514 1.69136 27.1636 1.43582 27.1864 1.23937C27.2319 0.849672 27.1994 0.451986 27.1994 0C27.6337 0 27.9947 0 28.4306 0C28.4306 0.558994 28.4306 1.1068 28.4306 1.62427C29.6682 2.19285 30.1025 3.75165 29.4552 4.87123C29.2665 5.19864 29.1576 5.65062 29.2112 6.01796C29.4698 7.80515 29.7805 9.58754 30.1155 11.3619C30.1692 11.651 30.4424 11.8986 30.6034 12.1701C30.7498 12.416 30.9287 12.6572 31.0149 12.9239C31.3222 13.887 31.5711 14.8692 31.8996 15.8243C31.9679 16.024 32.2753 16.2747 32.477 16.2795C33.1389 16.2923 33.3731 16.642 33.4723 17.2074C33.7065 18.541 33.9586 19.873 34.222 21.3088C34.3733 21.0964 34.492 20.9671 34.5668 20.8153C35.9948 17.9261 37.4211 15.0353 38.8393 12.1413C39.0409 11.7309 39.254 11.4194 39.807 11.4689C39.9663 11.4833 40.2135 11.2661 40.3095 11.0952C40.6998 10.3973 41.0527 9.67857 41.4073 8.96146C41.6773 8.41525 42.0383 8.27949 42.575 8.63565C43.6728 9.36554 44.7771 10.0874 45.8863 10.803C46.3482 11.1016 46.4702 11.4546 46.2002 11.9513C45.883 12.5358 45.5968 13.1364 45.2683 13.7896C45.9091 14.2032 45.735 14.6951 45.4553 15.2733C43.9412 18.4148 42.4612 21.5724 40.9714 24.7235C40.9161 24.8401 40.8787 24.9662 40.8202 25.1244C43.2727 26.9163 45.2634 29.0932 46.8052 31.7972C46.4848 31.9808 46.1725 32.1581 45.8099 32.3657C45.2683 31.6071 44.7576 30.8676 44.2225 30.1457C42.8206 28.2531 41.0755 26.7231 39.0897 25.439C38.6311 25.1435 38.231 24.9806 37.6683 25.1978C37.021 25.447 36.3282 25.5811 35.6646 25.7616C35.8435 26.9036 35.8484 26.9067 35.0141 27.7149C34.5733 28.1413 34.1147 28.5486 33.6967 28.9335C34.2318 29.4701 34.6823 29.9221 35.2027 30.4444C35.7443 29.6554 36.3428 28.8489 36.8649 27.9976C37.2162 27.4258 37.6488 27.1783 38.3286 27.239C38.8929 27.2885 39.4654 27.2501 40.0346 27.2533C40.5697 27.2549 40.8316 27.5201 40.8234 28.0455C40.8218 28.0982 40.8153 28.1541 40.8251 28.2052C41.23 30.3885 40.5161 31.8882 38.2798 32.6995C37.2471 33.0749 36.3558 33.8287 35.3361 34.4516C35.7248 35.0393 36.0143 35.4769 36.3542 35.9912C36.0338 36.2148 35.7346 36.4224 35.3979 36.6556C35.2385 36.4512 35.0873 36.2739 34.9555 36.0838C33.7813 34.3717 33.9212 33.7632 35.7817 32.6612C36.7087 32.1118 37.6358 31.5528 38.61 31.096C39.3825 30.7351 39.6964 30.2384 39.5663 29.4206C39.5207 29.1379 39.5598 28.8425 39.5598 28.5278C38.662 28.3394 37.9692 28.341 37.4894 29.2657C37.0503 30.1122 36.4274 30.8676 35.8907 31.6662C35.5394 32.1884 35.1312 32.2236 34.6856 31.7956C33.9504 31.0864 33.2283 30.3661 32.4981 29.6538C32.0948 29.2609 32.0818 28.8888 32.5079 28.4927C33.1747 27.8682 33.8252 27.231 34.5099 26.5761ZM12.289 35.0489C13.5038 35.2853 14.5838 35.0441 15.6279 34.5394C16.563 34.0874 17.5144 33.8111 18.5944 34.0635C19.4514 34.2647 20.3443 34.3238 21.2388 34.4484C21.486 33.8734 21.769 33.3528 21.9349 32.8002C22.1707 32.0112 22.631 31.4777 23.3612 31.0705C24.5143 30.43 25.6235 29.7129 26.7359 29.0038C26.9669 28.8568 27.2482 28.6221 27.2921 28.3873C27.4824 27.3747 27.593 26.3478 27.7003 25.5524C26.2431 24.8049 24.9306 24.1054 23.5889 23.4634C23.2701 23.31 22.8115 23.2254 22.4879 23.326C18.0804 24.7027 14.561 27.2645 12.0109 31.0673C11.8254 31.342 11.7409 31.7588 11.7815 32.0894C11.9003 33.0621 12.1068 34.0251 12.289 35.0489ZM13.1835 19.0808C14.0454 21.197 14.8732 23.227 15.6994 25.2505C17.303 24.353 18.8432 23.4921 20.4565 22.5881C19.7214 20.7898 18.9717 18.9563 18.2122 17.0988C16.5061 17.7728 14.9025 18.4037 13.1835 19.0808ZM22.605 21.8774C22.6684 21.903 22.7334 21.9285 22.7969 21.9541C22.9075 21.8199 23.0376 21.6969 23.1254 21.5516C25.2885 17.9565 29.9041 17.7696 32.3127 21.1763C32.4542 21.3775 32.6803 21.5213 32.8657 21.6921C32.7876 20.3809 32.5843 19.1799 32.3371 17.9868C32.3013 17.8159 32.0509 17.5636 31.8963 17.562C29.0844 17.5364 26.2708 17.5428 23.4084 17.5428C23.1351 19.0234 22.8701 20.4512 22.605 21.8774ZM10.7081 13.015C11.401 14.7031 12.0613 16.3098 12.7362 17.9533C14.4715 17.2633 16.1077 16.6117 17.76 15.9553C17.0656 14.2591 16.4118 12.6652 15.7433 11.0313C14.0292 11.7069 12.3882 12.3522 10.7081 13.015ZM42.4644 18.4356C40.9519 17.7792 39.4914 17.1467 38.0017 16.5015C37.5414 17.4087 37.1349 18.2104 36.6974 19.0729C38.1822 19.8043 39.615 20.5103 41.1227 21.2529C41.5748 20.3026 42.0074 19.3971 42.4644 18.4356ZM24.9859 16.246C26.9246 16.246 28.7721 16.246 30.6945 16.246C30.4326 15.3372 30.2114 14.4907 29.9333 13.6634C29.878 13.4973 29.6178 13.2929 29.4454 13.2865C28.3899 13.2513 27.3328 13.2513 26.2789 13.2849C26.0919 13.2913 25.7975 13.4654 25.7455 13.6235C25.4625 14.4715 25.2413 15.342 24.9859 16.246ZM35.2987 22.1968C36.8193 22.9124 38.2879 23.6055 39.8004 24.3178C40.0721 23.6806 40.3388 23.0561 40.6299 22.3725C39.1255 21.6346 37.6764 20.9239 36.1753 20.1877C35.8517 20.9271 35.5703 21.574 35.2987 22.1968ZM38.5644 15.4075C40.059 16.0575 41.5016 16.6836 43.0011 17.3352C43.2939 16.7554 43.5492 16.246 43.8013 15.7477C42.4173 14.8469 41.0983 13.9892 39.7338 13.1012C39.3369 13.8806 38.9678 14.6105 38.5644 15.4075ZM10.6138 11.7293C12.0873 11.1527 13.442 10.6209 14.922 10.0411C13.6144 8.90077 12.4061 7.84668 11.0497 6.66161C10.8968 8.4424 10.7618 10.014 10.6138 11.7293ZM27.9427 6.11858C27.8695 6.12337 27.7947 6.12657 27.7215 6.13136C27.393 8.07826 27.0644 10.0267 26.7262 12.0216C27.5084 12.0216 28.1947 12.0216 28.9461 12.0216C28.6046 10.014 28.2728 8.06707 27.9427 6.11858ZM30.7107 21.2977C29.1673 19.4929 25.9585 19.6063 24.9632 21.2977C26.8091 21.2977 28.6794 21.2977 30.7107 21.2977ZM42.0757 12.464C42.4368 11.7437 42.7539 11.1112 43.0857 10.45C42.8027 10.2775 42.5685 10.1338 42.2839 9.95808C41.9001 10.7135 41.5618 11.3811 41.2024 12.0886C41.5342 12.2308 41.7749 12.3346 42.0757 12.464ZM44.1363 11.1304C43.8062 11.7852 43.5248 12.3442 43.2126 12.9639C43.5183 13.1044 43.7704 13.2194 44.0843 13.3631C44.3803 12.785 44.6503 12.2563 44.9414 11.6862C44.6665 11.4977 44.4323 11.3348 44.1363 11.1304ZM27.2466 3.00419C27.2466 3.42903 27.2466 3.75803 27.2466 4.11898C27.6564 4.11898 28.0175 4.11898 28.4013 4.11898C28.4013 3.72449 28.4013 3.37472 28.4013 3.00419C27.998 3.00419 27.6548 3.00419 27.2466 3.00419Z" fill="black"/>
<path d="M17.8883 44.7818C19.0397 44.6428 19.1113 44.7067 19.0414 45.7241C19.0202 46.0259 19.0105 46.3294 18.9877 46.7846C19.5244 46.216 19.9017 45.7337 20.362 45.3472C21.1589 44.6764 22.0745 44.2899 23.1317 44.7243C24.1416 45.1395 24.4246 46.0339 24.5222 46.9922C24.6718 48.4632 24.3596 49.8527 23.6082 51.1351C22.3103 53.3504 20.645 53.8151 18.3632 52.5566C18.2802 53.1555 18.1973 53.7305 18.1208 54.3054C18.046 54.8564 17.9761 55.4075 17.898 56C17.4459 56 17.0263 56 16.5107 56C16.9726 52.2484 17.428 48.535 17.8883 44.7818ZM23.1349 47.7796C23.1251 47.6183 23.1268 47.4059 23.0991 47.1966C23.0129 46.5722 22.8438 45.9669 22.1672 45.7305C21.4744 45.4893 20.8905 45.7848 20.4173 46.2655C20.1017 46.5865 19.8253 46.9523 19.5732 47.326C18.9145 48.3034 18.6819 49.4087 18.5795 50.5586C18.4851 51.6223 18.895 52.1206 19.983 52.2084C20.9279 52.2851 21.5882 51.8251 22.0973 51.1224C22.8064 50.1433 23.0959 49.0221 23.1349 47.7796Z" fill="black"/>
<path d="M50.0077 53.1347C49.4873 53.1347 49.0872 53.1347 48.5781 53.1347C49.079 49.0365 49.5751 44.9846 50.0744 40.9056C50.5542 40.9056 50.9786 40.9056 51.5088 40.9056C51.2909 42.7135 51.0778 44.4815 50.8778 46.1489C51.704 45.6458 52.4586 45.0182 53.3287 44.6955C54.6135 44.218 55.6349 44.8952 55.9163 46.2144C55.9716 46.4731 56.0187 46.7478 55.9927 47.0066C55.7845 49.0397 55.5568 51.0696 55.3308 53.1315C54.8299 53.1315 54.407 53.1315 53.8784 53.1315C54.0573 51.5791 54.2362 50.0603 54.4054 48.5398C54.4639 48.0112 54.542 47.4793 54.5355 46.9507C54.5192 45.7576 53.6556 45.2593 52.6099 45.8902C51.4194 46.6073 50.7168 47.7077 50.5119 49.0653C50.3086 50.4005 50.1768 51.7484 50.0077 53.1347Z" fill="black"/>
<path d="M39.555 53.1842C39.0346 53.0948 38.4215 53.4126 38.3662 52.63C38.3353 52.1908 38.4084 51.7436 38.4458 51.1048C38.0425 51.5887 37.7855 51.9512 37.4765 52.2595C36.7024 53.0325 35.8225 53.5915 34.6597 53.1826C33.5131 52.7802 33.2236 51.8043 33.1569 50.7566C32.9601 47.6885 34.9557 45.09 37.8538 44.5997C38.0393 44.5677 38.2295 44.5502 38.4182 44.5438C40.3471 44.4863 40.6073 44.7562 40.3796 46.5897C40.1096 48.7538 39.838 50.9147 39.555 53.1842ZM39.0378 45.7209C37.579 45.4829 36.408 45.9189 35.6859 47.0097C35.1476 47.8243 34.7979 48.8225 34.6141 49.7839C34.3913 50.9499 34.8272 51.7788 35.4664 52.0008C36.2047 52.2563 36.9935 51.8155 37.7172 50.7901C38.7874 49.2713 38.8768 47.5176 39.0378 45.7209Z" fill="black"/>
<path d="M3.74551 53.1395C3.21369 53.1395 2.78758 53.1395 2.246 53.1395C2.68024 49.5859 3.10797 46.0706 3.54546 42.4819C2.35171 42.4819 1.22302 42.4819 0 42.4819C0.0422853 42.0299 0.0780655 41.6514 0.117098 41.2345C3.02666 41.2345 5.87929 41.2345 8.80349 41.2345C8.74819 41.645 8.6994 42.0059 8.64085 42.4452C7.47312 42.4452 6.32491 42.4452 5.09213 42.4452C4.64 46.0371 4.19601 49.5588 3.74551 53.1395Z" fill="black"/>
<path d="M32.277 51.881C32.2249 52.3474 32.1843 52.7099 32.1387 53.1172C30.0489 53.1172 28.0062 53.1172 25.8447 53.1172C26.3343 49.1627 26.8222 45.2226 27.3166 41.2378C27.8143 41.2378 28.2843 41.2378 28.8323 41.2378C28.3965 44.7786 27.9655 48.2795 27.5215 51.881C29.1153 51.881 30.6685 51.881 32.277 51.881Z" fill="black"/>
<path d="M47.5968 45.5452C47.335 46.1888 47.0243 46.224 46.3884 45.986C45.7639 45.7528 44.9702 45.7544 44.3083 45.8997C43.9798 45.9716 43.6171 46.5817 43.5716 46.9826C43.5374 47.2781 43.9294 47.7141 44.2433 47.9297C44.6547 48.2124 45.1817 48.329 45.6501 48.535C47.0064 49.1307 47.4163 50.2216 46.795 51.552C45.8696 53.5324 42.9714 53.9237 41.3906 52.2803C41.82 51.3475 41.794 51.4146 42.7031 51.8458C43.2284 52.095 43.9001 52.2036 44.4807 52.1413C45.1947 52.0647 45.6858 51.5711 45.759 50.7965C45.8257 50.0666 45.3394 49.7536 44.7588 49.5172C44.3343 49.3447 43.8903 49.2154 43.474 49.0269C42.3307 48.5063 41.9664 47.6406 42.3713 46.4667C43.0837 44.4112 46.0095 43.8794 47.5968 45.5452Z" fill="black"/>
<path d="M8.61189 53.1299C8.10284 53.1299 7.70438 53.1299 7.21484 53.1299C7.55638 50.3206 7.89141 47.5576 8.22319 44.8121C9.3161 44.5997 9.47711 44.7386 9.40555 45.7656C9.38116 46.101 9.35026 46.4348 9.38116 46.8165C10.2057 45.7496 10.8888 44.4927 12.655 44.8409C12.5704 45.3248 12.5038 45.7081 12.4371 46.0802C10.3277 46.331 9.44296 47.2094 9.08353 49.4566C8.89162 50.6608 8.77127 51.8762 8.61189 53.1299Z" fill="black"/>
<path d="M14.4586 53.1347C13.9446 53.1347 13.5445 53.1347 13.0469 53.1347C13.39 50.311 13.7283 47.5336 14.0682 44.7482C14.5724 44.7482 14.9936 44.7482 15.4832 44.7482C15.14 47.5576 14.8033 50.319 14.4586 53.1347Z" fill="black"/>
<path d="M16.0505 41.9229C16.0424 42.45 15.5252 42.9866 15.0194 42.9291C14.4437 42.8636 14.1022 42.5139 14.0631 41.9373C14.029 41.4182 14.5462 40.8816 15.0487 40.8768C15.5626 40.8736 16.0587 41.3927 16.0505 41.9229Z" fill="black"/>
<path d="M16.0845 14.4795C16.0682 15.4745 15.2014 16.3082 14.2044 16.2907C13.2188 16.2715 12.3553 15.3771 12.3959 14.414C12.4366 13.4717 13.3099 12.6716 14.2711 12.6955C15.2437 12.7211 16.1008 13.5644 16.0845 14.4795ZM15.0664 14.4731C14.7005 14.208 14.4565 13.9014 14.2874 13.9381C14.0483 13.9892 13.8645 14.2911 13.6563 14.4859C13.8678 14.6776 14.0564 14.9762 14.2955 15.0226C14.4663 15.0561 14.7037 14.7462 15.0664 14.4731Z" fill="black"/>
</svg>
