<?xml version="1.0" encoding="utf-8"?>
<!-- Generator: Adobe Illustrator 26.4.1, SVG Export Plug-In . SVG Version: 6.00 Build 0)  -->
<svg version="1.1" id="Layer_1" xmlns="http://www.w3.org/2000/svg" xmlns:xlink="http://www.w3.org/1999/xlink" x="100px" y="0px"
	 viewBox="0 0 1125 2436" style="enable-background:new 0 0 1125 2436;" xml:space="preserve">
<style type="text/css">
	.st0{fill:#FFFFFF;}
</style>
<path d="M602.63,1062.83c-0.92-1.87-1.5-3.06-2.08-4.24c-1.79-3.67-0.79-6.04,3.22-7.12c3.84-1.04,7.66-2.17,12.59-3.58
	c-23.85-10.68-47.54-13.6-72.92-9.25c4.71,4.29,9.68,6.4,15.26,7.66c11.24,2.54,11.18,2.67,9.28,14.23
	c-0.86,5.25-1.24,10.62-2.49,15.77c-0.59,2.44-2.25,5.18-4.27,6.61c-6.1,4.32-12.41,8.43-19,11.94c-5.96,3.17-9.44,7.68-11.71,13.97
	c-4.99,13.81-3.39,11.74-16.87,9.96c-4.78-0.63-9.55-1.86-14.33-1.88c-3.14-0.01-6.52,1.22-9.39,2.69c-8,4.1-16.43,4.87-25.2,4.53
	c-4.02-0.15-5.65-2-6.15-5.65c-0.57-4.11-1.3-8.2-2.09-13.13c-1.25,1.87-2.07,3.1-3.13,4.69c-1.99-0.81-4.05-1.65-6.51-2.66
	c5.25-13,12.6-24.32,21.65-34.57c2.75-3.12,5.63-6.17,8.8-8.84c2.96-2.51,3.5-4.78,1.97-8.5c-9.8-23.99-19.18-48.16-29.07-72.12
	c-2.28-5.52-2.48-10.76-1.86-16.49c1.27-11.75,1.96-23.56,3.15-35.32c0.17-1.68,1.4-3.92,2.79-4.61c1.07-0.53,3.49,0.56,4.71,1.62
	c10.68,9.28,21.29,18.63,31.72,28.17c1.74,1.59,2.82,4.08,3.74,6.35c8.35,20.66,16.59,41.37,24.88,62.06
	c0.65,1.63,1.38,3.23,2.69,6.28c1.86-10.06,3.55-18.59,4.97-27.17c0.6-3.61,1.87-5.72,5.97-5.89c1.37-0.05,3.34-1.84,3.85-3.27
	c1.81-4.99,2.83-10.28,4.69-15.24c1.09-2.9,3.26-5.38,4.84-8.11c0.56-0.96,0.98-2.06,1.17-3.15c1.98-11.47,4.06-22.93,5.72-34.44
	c0.33-2.3-0.43-5.14-1.61-7.19c-3.43-5.95-1.41-15.7,4.2-19.3c0.96-0.62,1.65-2.22,1.79-3.45c0.28-2.44,0.08-4.93,0.08-7.76
	c2.67,0,4.89,0,7.57,0c0,3.5,0,6.93,0,10.17c7.61,3.56,10.28,13.32,6.3,20.33c-1.16,2.05-1.83,4.88-1.5,7.18
	c1.59,11.19,3.5,22.35,5.56,33.46c0.33,1.81,2.01,3.36,3,5.06c0.9,1.54,2,3.05,2.53,4.72c1.89,6.03,3.42,12.18,5.44,18.16
	c0.42,1.25,2.31,2.82,3.55,2.85c4.07,0.08,5.51,2.27,6.12,5.81c1.44,8.35,2.99,16.69,4.61,25.68c0.93-1.33,1.66-2.14,2.12-3.09
	c8.78-18.09,17.55-36.19,26.27-54.31c1.24-2.57,2.55-4.52,5.95-4.21c0.98,0.09,2.5-1.27,3.09-2.34c2.4-4.37,4.57-8.87,6.75-13.36
	c1.66-3.42,3.88-4.27,7.18-2.04c6.75,4.57,13.54,9.09,20.36,13.57c2.84,1.87,3.59,4.08,1.93,7.19c-1.95,3.66-3.71,7.42-5.73,11.51
	c3.94,2.59,2.87,5.67,1.15,9.29c-9.31,19.67-18.41,39.44-27.57,59.17c-0.34,0.73-0.57,1.52-0.93,2.51
	c15.08,11.22,27.32,24.85,36.8,41.78c-1.97,1.15-3.89,2.26-6.12,3.56c-3.33-4.75-6.47-9.38-9.76-13.9
	c-8.62-11.85-19.35-21.43-31.56-29.47c-2.82-1.85-5.28-2.87-8.74-1.51c-3.98,1.56-8.24,2.4-12.32,3.53c1.1,7.15,1.13,7.17-4,12.23
	c-2.71,2.67-5.53,5.22-8.1,7.63c3.29,3.36,6.06,6.19,9.26,9.46c3.33-4.94,7.01-9.99,10.22-15.32c2.16-3.58,4.82-5.13,9-4.75
	c3.47,0.31,6.99,0.07,10.49,0.09c3.29,0.01,4.9,1.67,4.85,4.96c-0.01,0.33-0.05,0.68,0.01,1c2.49,13.67-1.9,23.06-15.65,28.14
	c-6.35,2.35-11.83,7.07-18.1,10.97c2.39,3.68,4.17,6.42,6.26,9.64c-1.97,1.4-3.81,2.7-5.88,4.16c-0.98-1.28-1.91-2.39-2.72-3.58
	c-7.22-10.72-6.36-14.53,5.08-21.43c5.7-3.44,11.4-6.94,17.39-9.8c4.75-2.26,6.68-5.37,5.88-10.49c-0.28-1.77-0.04-3.62-0.04-5.59
	c-5.52-1.18-9.78-1.17-12.73,4.62c-2.7,5.3-6.53,10.03-9.83,15.03c-2.16,3.27-4.67,3.49-7.41,0.81c-4.52-4.44-8.96-8.95-13.45-13.41
	c-2.48-2.46-2.56-4.79,0.06-7.27C594.42,1070.92,598.42,1066.93,602.63,1062.83z M466,1115.88c7.47,1.48,14.11-0.03,20.53-3.19
	c5.75-2.83,11.6-4.56,18.24-2.98c5.27,1.26,10.76,1.63,16.26,2.41c1.52-3.6,3.26-6.86,4.28-10.32c1.45-4.94,4.28-8.28,8.77-10.83
	c7.09-4.01,13.91-8.5,20.75-12.94c1.42-0.92,3.15-2.39,3.42-3.86c1.17-6.34,1.85-12.77,2.51-17.75
	c-8.96-4.68-17.03-9.06-25.28-13.08c-1.96-0.96-4.78-1.49-6.77-0.86c-27.1,8.62-48.74,24.66-64.42,48.47
	c-1.14,1.72-1.66,4.33-1.41,6.4C463.61,1103.44,464.88,1109.47,466,1115.88z M471.5,1015.9c5.3,13.25,10.39,25.96,15.47,38.63
	c9.86-5.62,19.33-11.01,29.25-16.67c-4.52-11.26-9.13-22.74-13.8-34.37C491.93,1007.71,482.07,1011.66,471.5,1015.9z
	 M529.43,1033.41c0.39,0.16,0.79,0.32,1.18,0.48c0.68-0.84,1.48-1.61,2.02-2.52c13.3-22.51,41.68-23.68,56.49-2.35
	c0.87,1.26,2.26,2.16,3.4,3.23c-0.48-8.21-1.73-15.73-3.25-23.2c-0.22-1.07-1.76-2.65-2.71-2.66c-17.29-0.16-34.59-0.12-52.19-0.12
	C532.69,1015.54,531.06,1024.48,529.43,1033.41z M456.28,977.92c4.26,10.57,8.32,20.63,12.47,30.92
	c10.67-4.32,20.73-8.4,30.89-12.51c-4.27-10.62-8.29-20.6-12.4-30.83C476.7,969.73,466.61,973.77,456.28,977.92z M651.54,1011.86
	c-9.3-4.11-18.28-8.07-27.44-12.11c-2.83,5.68-5.33,10.7-8.02,16.1c9.13,4.58,17.94,9,27.21,13.65
	C646.07,1023.55,648.73,1017.88,651.54,1011.86z M544.07,998.15c11.92,0,23.28,0,35.1,0c-1.61-5.69-2.97-10.99-4.68-16.17
	c-0.34-1.04-1.94-2.32-3-2.36c-6.49-0.22-12.99-0.22-19.47-0.01c-1.15,0.04-2.96,1.13-3.28,2.12
	C547,987.04,545.64,992.49,544.07,998.15z M607.48,1035.41c9.35,4.48,18.38,8.82,27.68,13.28c1.67-3.99,3.31-7.9,5.1-12.18
	c-9.25-4.62-18.16-9.07-27.39-13.68C610.88,1027.46,609.15,1031.51,607.48,1035.41z M627.56,992.9c9.19,4.07,18.06,7.99,27.28,12.07
	c1.8-3.63,3.37-6.82,4.92-9.94c-8.51-5.64-16.62-11.01-25.01-16.57C632.31,983.34,630.04,987.91,627.56,992.9z M455.7,969.87
	c9.06-3.61,17.39-6.94,26.49-10.57c-8.04-7.14-15.47-13.74-23.81-21.16C457.44,949.29,456.61,959.13,455.7,969.87z M562.25,934.74
	c-0.45,0.03-0.91,0.05-1.36,0.08c-2.02,12.19-4.04,24.39-6.12,36.88c4.81,0,9.03,0,13.65,0
	C566.32,959.13,564.28,946.94,562.25,934.74z M579.27,1029.78c-9.49-11.3-29.22-10.59-35.34,0
	C555.28,1029.78,566.78,1029.78,579.27,1029.78z M649.15,974.47c2.22-4.51,4.17-8.47,6.21-12.61c-1.74-1.08-3.18-1.98-4.93-3.08
	c-2.36,4.73-4.44,8.91-6.65,13.34C645.82,973.01,647.3,973.66,649.15,974.47z M661.82,966.12c-2.03,4.1-3.76,7.6-5.68,11.48
	c1.88,0.88,3.43,1.6,5.36,2.5c1.82-3.62,3.48-6.93,5.27-10.5C665.08,968.42,663.64,967.4,661.82,966.12z M557.97,915.24
	c0,2.66,0,4.72,0,6.98c2.52,0,4.74,0,7.1,0c0-2.47,0-4.66,0-6.98C562.59,915.24,560.48,915.24,557.97,915.24z"/>
<path d="M500.43,1176.82c7.08-0.87,7.52-0.47,7.09,5.9c-0.13,1.89-0.19,3.79-0.33,6.64c3.3-3.56,5.62-6.58,8.45-9
	c4.9-4.2,10.53-6.62,17.03-3.9c6.21,2.6,7.95,8.2,8.55,14.2c0.92,9.21-1,17.91-5.62,25.94c-7.98,13.87-18.22,16.78-32.25,8.9
	c-0.51,3.75-1.02,7.35-1.49,10.95c-0.46,3.45-0.89,6.9-1.37,10.61c-2.78,0-5.36,0-8.53,0
	C494.8,1223.57,497.6,1200.32,500.43,1176.82z M532.69,1195.59c-0.06-1.01-0.05-2.34-0.22-3.65c-0.53-3.91-1.57-7.7-5.73-9.18
	c-4.26-1.51-7.85,0.34-10.76,3.35c-1.94,2.01-3.64,4.3-5.19,6.64c-4.05,6.12-5.48,13.04-6.11,20.24c-0.58,6.66,1.94,9.78,8.63,10.33
	c5.81,0.48,9.87-2.4,13-6.8C530.67,1210.39,532.45,1203.37,532.69,1195.59z"/>
<path d="M697.92,1229.12c-3.2,0-5.66,0-8.79,0c3.08-25.66,6.13-51.03,9.2-76.57c2.95,0,5.56,0,8.82,0
	c-1.34,11.32-2.65,22.39-3.88,32.83c5.08-3.15,9.72-7.08,15.07-9.1c7.9-2.99,14.18,1.25,15.91,9.51c0.34,1.62,0.63,3.34,0.47,4.96
	c-1.28,12.73-2.68,25.44-4.07,38.35c-3.08,0-5.68,0-8.93,0c1.1-9.72,2.2-19.23,3.24-28.75c0.36-3.31,0.84-6.64,0.8-9.95
	c-0.1-7.47-5.41-10.59-11.84-6.64c-7.32,4.49-11.64,11.38-12.9,19.88C699.77,1212,698.96,1220.44,697.92,1229.12z"/>
<path d="M633.65,1229.43c-3.2-0.56-6.97,1.43-7.31-3.47c-0.19-2.75,0.26-5.55,0.49-9.55c-2.48,3.03-4.06,5.3-5.96,7.23
	c-4.76,4.84-10.17,8.34-17.32,5.78c-7.05-2.52-8.83-8.63-9.24-15.19c-1.21-19.21,11.06-35.48,28.88-38.55
	c1.14-0.2,2.31-0.31,3.47-0.35c11.86-0.36,13.46,1.33,12.06,12.81C637.06,1201.69,635.39,1215.22,633.65,1229.43z M630.47,1182.7
	c-8.97-1.49-16.17,1.24-20.61,8.07c-3.31,5.1-5.46,11.35-6.59,17.37c-1.37,7.3,1.31,12.49,5.24,13.88c4.54,1.6,9.39-1.16,13.84-7.58
	C628.93,1204.93,629.48,1193.95,630.47,1182.7z"/>
<path d="M413.47,1229.15c-3.27,0-5.89,0-9.22,0c2.67-22.25,5.3-44.26,7.99-66.73c-7.34,0-14.28,0-21.8,0
	c0.26-2.83,0.48-5.2,0.72-7.81c17.89,0,35.43,0,53.41,0c-0.34,2.57-0.64,4.83-1,7.58c-7.18,0-14.24,0-21.82,0
	C418.97,1184.68,416.24,1206.73,413.47,1229.15z"/>
<path d="M588.9,1221.27c-0.32,2.92-0.57,5.19-0.85,7.74c-12.85,0-25.41,0-38.7,0c3.01-24.76,6.01-49.43,9.05-74.38
	c3.06,0,5.95,0,9.32,0c-2.68,22.17-5.33,44.09-8.06,66.64C569.46,1221.27,579.01,1221.27,588.9,1221.27z"/>
<path d="M683.1,1181.6c-1.61,4.03-3.52,4.25-7.43,2.76c-3.84-1.46-8.72-1.45-12.79-0.54c-2.02,0.45-4.25,4.27-4.53,6.78
	c-0.21,1.85,2.2,4.58,4.13,5.93c2.53,1.77,5.77,2.5,8.65,3.79c8.34,3.73,10.86,10.56,7.04,18.89c-5.69,12.4-23.51,14.85-33.23,4.56
	c2.64-5.84,2.48-5.42,8.07-2.72c3.23,1.56,7.36,2.24,10.93,1.85c4.39-0.48,7.41-3.57,7.86-8.42c0.41-4.57-2.58-6.53-6.15-8.01
	c-2.61-1.08-5.34-1.89-7.9-3.07c-7.03-3.26-9.27-8.68-6.78-16.03C655.35,1174.5,673.34,1171.17,683.1,1181.6z"/>
<path d="M443.39,1229.09c-3.13,0-5.58,0-8.59,0c2.1-17.59,4.16-34.89,6.2-52.08c6.72-1.33,7.71-0.46,7.27,5.97
	c-0.15,2.1-0.34,4.19-0.15,6.58c5.07-6.68,9.27-14.55,20.13-12.37c-0.52,3.03-0.93,5.43-1.34,7.76
	c-12.97,1.57-18.41,7.07-20.62,21.14C445.11,1213.63,444.37,1221.24,443.39,1229.09z"/>
<path d="M479.34,1229.12c-3.16,0-5.62,0-8.68,0c2.11-17.68,4.19-35.07,6.28-52.51c3.1,0,5.69,0,8.7,0
	C483.53,1194.2,481.46,1211.49,479.34,1229.12z"/>
<path d="M489.13,1158.92c-0.05,3.3-3.23,6.66-6.34,6.3c-3.54-0.41-5.64-2.6-5.88-6.21c-0.21-3.25,2.97-6.61,6.06-6.64
	C486.13,1152.35,489.18,1155.6,489.13,1158.92z"/>
<path class="st0" d="M466,1115.88c-1.12-6.41-2.38-12.44-3.11-18.53c-0.25-2.07,0.27-4.68,1.41-6.4
	c15.68-23.8,37.32-39.85,64.42-48.47c1.99-0.63,4.81-0.09,6.77,0.86c8.25,4.02,16.31,8.4,25.28,13.08
	c-0.67,4.98-1.35,11.41-2.51,17.75c-0.27,1.46-2,2.94-3.42,3.86c-6.83,4.44-13.66,8.93-20.75,12.94c-4.49,2.54-7.33,5.89-8.77,10.83
	c-1.02,3.46-2.75,6.72-4.28,10.32c-5.5-0.78-10.99-1.15-16.26-2.41c-6.64-1.59-12.49,0.15-18.24,2.98
	C480.1,1115.84,473.46,1117.36,466,1115.88z"/>
<path class="st0" d="M471.5,1015.9c10.57-4.24,20.42-8.19,30.93-12.4c4.67,11.62,9.27,23.1,13.8,34.37
	c-9.92,5.65-19.39,11.05-29.25,16.67C481.9,1041.86,476.81,1029.15,471.5,1015.9z"/>
<path class="st0" d="M529.43,1033.41c1.63-8.93,3.26-17.87,4.95-27.14c17.6,0,34.9-0.04,52.19,0.12c0.94,0.01,2.49,1.6,2.71,2.66
	c1.52,7.47,2.77,14.99,3.25,23.2c-1.15-1.07-2.53-1.97-3.4-3.23c-14.8-21.33-43.18-20.16-56.49,2.35c-0.54,0.92-1.34,1.69-2.02,2.52
	C530.22,1033.73,529.83,1033.57,529.43,1033.41z"/>
<path class="st0" d="M456.28,977.92c10.34-4.15,20.42-8.19,30.95-12.41c4.11,10.23,8.13,20.21,12.4,30.83
	c-10.15,4.11-20.22,8.19-30.89,12.51C464.6,998.54,460.54,988.48,456.28,977.92z M489.34,987.09c0.1-5.73-5.17-11.01-11.15-11.17
	c-5.91-0.15-11.28,4.86-11.53,10.76c-0.25,6.03,5.05,11.63,11.12,11.75C483.91,998.55,489.24,993.32,489.34,987.09z"/>
<path class="st0" d="M651.54,1011.86c-2.81,6.02-5.47,11.69-8.25,17.64c-9.27-4.65-18.09-9.07-27.21-13.65
	c2.69-5.4,5.19-10.42,8.02-16.1C633.26,1003.79,642.24,1007.75,651.54,1011.86z"/>
<path class="st0" d="M544.07,998.15c1.57-5.66,2.93-11.1,4.67-16.43c0.32-0.99,2.13-2.08,3.28-2.12c6.49-0.2,12.99-0.21,19.47,0.01
	c1.06,0.04,2.66,1.32,3,2.36c1.7,5.18,3.07,10.48,4.68,16.17C567.35,998.15,555.99,998.15,544.07,998.15z"/>
<path class="st0" d="M607.48,1035.41c1.67-3.89,3.4-7.94,5.39-12.58c9.23,4.61,18.14,9.06,27.39,13.68
	c-1.79,4.28-3.43,8.19-5.1,12.18C625.86,1044.23,616.83,1039.89,607.48,1035.41z"/>
<path class="st0" d="M627.56,992.9c2.48-4.99,4.76-9.57,7.18-14.44c8.39,5.56,16.5,10.93,25.01,16.57
	c-1.54,3.12-3.12,6.31-4.92,9.94C645.62,1000.9,636.75,996.97,627.56,992.9z"/>
<path class="st0" d="M455.7,969.87c0.91-10.74,1.73-20.57,2.68-31.73c8.34,7.41,15.77,14.02,23.81,21.16
	C473.09,962.93,464.76,966.25,455.7,969.87z"/>
<path class="st0" d="M562.25,934.74c2.03,12.2,4.07,24.39,6.17,36.97c-4.62,0-8.84,0-13.65,0c2.07-12.5,4.09-24.69,6.12-36.88
	C561.34,934.8,561.79,934.77,562.25,934.74z"/>
<path class="st0" d="M579.27,1029.78c-12.49,0-23.99,0-35.34,0C550.04,1019.18,569.78,1018.47,579.27,1029.78z"/>
<path class="st0" d="M649.15,974.47c-1.85-0.81-3.32-1.46-5.37-2.36c2.21-4.43,4.29-8.6,6.65-13.34c1.75,1.09,3.19,1.99,4.93,3.08
	C653.31,966,651.36,969.96,649.15,974.47z"/>
<path class="st0" d="M661.82,966.12c1.82,1.28,3.27,2.3,4.95,3.48c-1.79,3.57-3.45,6.88-5.27,10.5c-1.93-0.9-3.48-1.62-5.36-2.5
	C658.05,973.72,659.79,970.22,661.82,966.12z"/>
<path class="st0" d="M557.97,915.24c2.51,0,4.62,0,7.1,0c0,2.32,0,4.51,0,6.98c-2.35,0-4.58,0-7.1,0
	C557.97,919.96,557.97,917.9,557.97,915.24z"/>
<path class="st0" d="M532.69,1195.59c-0.24,7.78-2.02,14.8-6.39,20.94c-3.13,4.4-7.19,7.28-13,6.8c-6.69-0.55-9.22-3.67-8.63-10.33
	c0.63-7.2,2.05-14.13,6.11-20.24c1.55-2.34,3.25-4.63,5.19-6.64c2.91-3.01,6.5-4.86,10.76-3.35c4.16,1.48,5.21,5.26,5.73,9.18
	C532.64,1193.24,532.63,1194.58,532.69,1195.59z"/>
<path class="st0" d="M630.47,1182.7c-0.99,11.25-1.54,22.23-8.13,31.75c-4.45,6.42-9.29,9.18-13.84,7.58
	c-3.93-1.39-6.62-6.58-5.24-13.88c1.13-6.02,3.28-12.27,6.59-17.37C614.29,1183.94,621.5,1181.21,630.47,1182.7z"/>
<path d="M489.34,987.09c-0.1,6.23-5.43,11.45-11.56,11.34c-6.06-0.12-11.37-5.72-11.12-11.75c0.25-5.9,5.62-10.91,11.53-10.76
	C484.17,976.08,489.44,981.36,489.34,987.09z M483.08,987.05c-2.25-1.66-3.75-3.58-4.79-3.35c-1.47,0.32-2.6,2.21-3.88,3.43
	c1.3,1.2,2.46,3.07,3.93,3.36C479.39,990.7,480.85,988.76,483.08,987.05z"/>
<path class="st0" d="M483.08,987.05c-2.23,1.71-3.69,3.65-4.74,3.44c-1.47-0.29-2.64-2.16-3.93-3.36c1.28-1.22,2.41-3.12,3.88-3.43
	C479.33,983.47,480.83,985.39,483.08,987.05z"/>
</svg>
